<mxfile host="drawio-plugin" modified="2024-09-11T18:19:23.539Z" agent="5.0 (Windows NT 10.0; Win64; x64) AppleWebKit/537.36 (KHTML, like Gecko) Chrome/111.0.0.0 Safari/537.36" etag="qGZOG2NR8Q9j0G2uymwv" version="20.5.3" type="embed"><diagram id="qeMY2syIwX05Tvn6X6Fh" name="Page-1"><mxGraphModel dx="256" dy="554" grid="1" gridSize="10" guides="1" tooltips="1" connect="1" arrows="1" fold="1" page="0" pageScale="1" pageWidth="850" pageHeight="1100" math="0" shadow="0"><root><mxCell id="0"/><mxCell id="1" parent="0"/><mxCell id="9" value="&lt;p style=&quot;line-height: 100%;&quot;&gt;&lt;font style=&quot;font-size: 19px;&quot;&gt;CoffeeShop&lt;/font&gt;&lt;/p&gt;" style="rounded=0;whiteSpace=wrap;html=1;" parent="1" vertex="1"><mxGeometry x="790" y="410" width="200" height="40" as="geometry"/></mxCell><mxCell id="90" style="edgeStyle=orthogonalEdgeStyle;rounded=0;orthogonalLoop=1;jettySize=auto;html=1;exitX=1;exitY=0.25;exitDx=0;exitDy=0;entryX=0;entryY=0.5;entryDx=0;entryDy=0;fontFamily=Helvetica;fontSize=18;endSize=23;startSize=23;endArrow=diamondThin;endFill=1;" parent="1" source="23" target="78" edge="1"><mxGeometry relative="1" as="geometry"><Array as="points"><mxPoint x="980" y="670"/><mxPoint x="1030" y="670"/><mxPoint x="1030" y="390"/></Array></mxGeometry></mxCell><mxCell id="97" style="edgeStyle=orthogonalEdgeStyle;rounded=0;orthogonalLoop=1;jettySize=auto;html=1;exitX=1;exitY=0.5;exitDx=0;exitDy=0;entryX=0.5;entryY=1;entryDx=0;entryDy=0;fontFamily=Helvetica;fontSize=18;endSize=23;startSize=23;endArrow=diamondThin;endFill=1;" parent="1" source="23" target="54" edge="1"><mxGeometry relative="1" as="geometry"><Array as="points"><mxPoint x="990" y="605"/><mxPoint x="980" y="605"/><mxPoint x="980" y="650"/><mxPoint x="1000" y="650"/><mxPoint x="1000" y="400"/><mxPoint x="965" y="400"/></Array></mxGeometry></mxCell><mxCell id="114" style="edgeStyle=orthogonalEdgeStyle;rounded=0;jumpSize=0;orthogonalLoop=1;jettySize=auto;html=1;exitX=0;exitY=0.75;exitDx=0;exitDy=0;entryX=1.009;entryY=0.641;entryDx=0;entryDy=0;entryPerimeter=0;fontFamily=Helvetica;fontSize=18;startArrow=none;startFill=0;endArrow=diamondThin;endFill=1;startSize=23;endSize=23;sourcePerimeterSpacing=0;targetPerimeterSpacing=0;" parent="1" source="23" target="76" edge="1"><mxGeometry relative="1" as="geometry"><Array as="points"><mxPoint x="790" y="630"/><mxPoint x="736" y="630"/><mxPoint x="736" y="668"/></Array></mxGeometry></mxCell><mxCell id="124" style="edgeStyle=orthogonalEdgeStyle;rounded=0;orthogonalLoop=1;jettySize=auto;html=1;exitX=0.75;exitY=1;exitDx=0;exitDy=0;entryX=0;entryY=0.75;entryDx=0;entryDy=0;endSize=23;startSize=23;endArrow=diamondThin;endFill=1;" parent="1" source="23" target="56" edge="1"><mxGeometry relative="1" as="geometry"/></mxCell><mxCell id="136" style="edgeStyle=orthogonalEdgeStyle;rounded=0;orthogonalLoop=1;jettySize=auto;html=1;exitX=0;exitY=1;exitDx=0;exitDy=0;entryX=0.938;entryY=0;entryDx=0;entryDy=0;entryPerimeter=0;endArrow=diamondThin;endFill=1;startSize=23;endSize=23;" parent="1" source="23" target="126" edge="1"><mxGeometry relative="1" as="geometry"><Array as="points"><mxPoint x="790" y="710"/><mxPoint x="760" y="710"/><mxPoint x="760" y="810"/><mxPoint x="690" y="810"/></Array></mxGeometry></mxCell><mxCell id="23" value="&lt;font style=&quot;font-size: 18px;&quot;&gt;id: int&lt;br style=&quot;font-size: 18px;&quot;&gt;name: str&lt;br style=&quot;font-size: 18px;&quot;&gt;phone: str&lt;br style=&quot;font-size: 18px;&quot;&gt;image: img&lt;br&gt;description: str&lt;br&gt;price_rate: int&lt;br&gt;is_network: bool&lt;br style=&quot;font-size: 18px;&quot;&gt;&lt;span style=&quot;background-color: initial;&quot;&gt;work_time: WorkTime&lt;/span&gt;&lt;br&gt;tags: Tag&lt;br style=&quot;font-size: 18px;&quot;&gt;&lt;/font&gt;&lt;div style=&quot;font-size: 18px;&quot;&gt;&lt;span style=&quot;background-color: initial; font-size: 18px;&quot;&gt;&lt;font style=&quot;font-size: 18px;&quot;&gt;socials: Socials&lt;/font&gt;&lt;/span&gt;&lt;/div&gt;&lt;div style=&quot;font-size: 18px;&quot;&gt;&lt;span style=&quot;background-color: initial;&quot;&gt;owner: User&lt;/span&gt;&lt;/div&gt;&lt;div style=&quot;font-size: 18px;&quot;&gt;&lt;span style=&quot;background-color: initial;&quot;&gt;city: City&lt;br&gt;&lt;/span&gt;&lt;div&gt;address: Address&amp;nbsp;&lt;br&gt;&lt;/div&gt;&lt;div&gt;&lt;br&gt;&lt;/div&gt;&lt;/div&gt;" style="rounded=0;whiteSpace=wrap;html=1;fontSize=18;align=left;verticalAlign=top;spacingLeft=6;" parent="1" vertex="1"><mxGeometry x="790" y="450" width="200" height="290" as="geometry"/></mxCell><mxCell id="53" value="&lt;span style=&quot;font-size: 19px;&quot;&gt;Tag&lt;/span&gt;" style="rounded=0;whiteSpace=wrap;html=1;" parent="1" vertex="1"><mxGeometry x="860" y="240" width="210" height="40" as="geometry"/></mxCell><mxCell id="54" value="id: int&lt;br style=&quot;font-size: 18px;&quot;&gt;&lt;div style=&quot;font-size: 18px;&quot;&gt;&lt;span style=&quot;background-color: initial; font-size: 18px;&quot;&gt;name: str&lt;/span&gt;&lt;/div&gt;&lt;div style=&quot;font-size: 18px;&quot;&gt;&lt;span style=&quot;background-color: initial; font-size: 18px;&quot;&gt;type:&amp;nbsp;&lt;/span&gt;str (Enum)&lt;br style=&quot;font-size: 18px;&quot;&gt;('activity', 'convenience')&lt;br style=&quot;font-size: 18px;&quot;&gt;&lt;/div&gt;" style="rounded=0;whiteSpace=wrap;html=1;fontSize=18;spacingLeft=6;align=left;verticalAlign=top;" parent="1" vertex="1"><mxGeometry x="860" y="270" width="210" height="100" as="geometry"/></mxCell><mxCell id="56" value="&lt;p style=&quot;line-height: 100%;&quot;&gt;&lt;font style=&quot;font-size: 19px;&quot;&gt;Address&lt;/font&gt;&lt;/p&gt;" style="rounded=0;whiteSpace=wrap;html=1;" parent="1" vertex="1"><mxGeometry x="1110" y="730" width="150" height="40" as="geometry"/></mxCell><mxCell id="58" value="&lt;p style=&quot;line-height: 100%;&quot;&gt;&lt;font style=&quot;font-size: 19px;&quot;&gt;Socials&lt;/font&gt;&lt;/p&gt;" style="rounded=0;whiteSpace=wrap;html=1;" parent="1" vertex="1"><mxGeometry x="1100" y="300" width="130" height="40" as="geometry"/></mxCell><mxCell id="61" value="&lt;p style=&quot;line-height: 100%;&quot;&gt;&lt;font style=&quot;font-size: 19px;&quot;&gt;WorkTime&lt;/font&gt;&lt;/p&gt;" style="rounded=0;whiteSpace=wrap;html=1;" parent="1" vertex="1"><mxGeometry x="510" y="410" width="170" height="40" as="geometry"/></mxCell><mxCell id="132" style="edgeStyle=orthogonalEdgeStyle;rounded=0;orthogonalLoop=1;jettySize=auto;html=1;exitX=0.75;exitY=0;exitDx=0;exitDy=0;entryX=0.3;entryY=1.012;entryDx=0;entryDy=0;entryPerimeter=0;endSize=23;startSize=23;endArrow=diamondThin;endFill=1;" parent="1" source="65" target="23" edge="1"><mxGeometry relative="1" as="geometry"/></mxCell><mxCell id="65" value="&lt;p style=&quot;line-height: 100%;&quot;&gt;&lt;span style=&quot;font-size: 19px;&quot;&gt;Comment&lt;/span&gt;&lt;/p&gt;" style="rounded=0;whiteSpace=wrap;html=1;" parent="1" vertex="1"><mxGeometry x="730" y="830" width="160" height="40" as="geometry"/></mxCell><mxCell id="117" style="edgeStyle=orthogonalEdgeStyle;rounded=0;orthogonalLoop=1;jettySize=auto;html=1;exitX=0.75;exitY=1;exitDx=0;exitDy=0;entryX=1.008;entryY=0.852;entryDx=0;entryDy=0;entryPerimeter=0;startArrow=diamondThin;startFill=1;endArrow=diamondThin;endFill=1;endSize=23;startSize=23;" parent="1" source="68" target="23" edge="1"><mxGeometry relative="1" as="geometry"/></mxCell><mxCell id="68" value="&lt;font style=&quot;font-size: 18px;&quot;&gt;id: int&lt;br style=&quot;font-size: 18px;&quot;&gt;username: str&lt;br style=&quot;font-size: 18px;&quot;&gt;first_name: str&lt;br style=&quot;font-size: 18px;&quot;&gt;last_name: str&lt;br style=&quot;font-size: 18px;&quot;&gt;email: str&lt;br style=&quot;font-size: 18px;&quot;&gt;photo: img&lt;br style=&quot;font-size: 18px;&quot;&gt;is_owner:&amp;nbsp;&lt;/font&gt;&lt;span style=&quot;background-color: rgb(255, 255, 255); color: rgb(8, 8, 8); font-size: 18px;&quot;&gt;bool&lt;br style=&quot;font-size: 18px;&quot;&gt;&lt;/span&gt;&lt;span style=&quot;background-color: rgb(255, 255, 255); color: rgb(8, 8, 8); font-size: 18px;&quot;&gt;favorite_shops: CoffeeShop&amp;nbsp;&lt;br style=&quot;font-size: 18px;&quot;&gt;&lt;/span&gt;" style="rounded=0;whiteSpace=wrap;html=1;fontSize=18;align=left;verticalAlign=top;spacingLeft=6;direction=south;" parent="1" vertex="1"><mxGeometry x="1090" y="520" width="250" height="190" as="geometry"/></mxCell><mxCell id="70" value="&lt;p style=&quot;line-height: 100%; font-size: 19px;&quot;&gt;&lt;font style=&quot;font-size: 19px;&quot;&gt;User (&lt;/font&gt;&lt;span style=&quot;font-family: &amp;quot;JetBrains Mono&amp;quot;, monospace; background-color: rgb(255, 255, 255); color: rgb(8, 8, 8);&quot;&gt;AbstractUser&lt;/span&gt;&lt;span style=&quot;background-color: initial;&quot;&gt;)&lt;/span&gt;&lt;/p&gt;" style="rounded=0;whiteSpace=wrap;html=1;align=center;" parent="1" vertex="1"><mxGeometry x="1090" y="470" width="250" height="50" as="geometry"/></mxCell><mxCell id="103" style="edgeStyle=orthogonalEdgeStyle;rounded=0;orthogonalLoop=1;jettySize=auto;html=1;exitX=0.25;exitY=0;exitDx=0;exitDy=0;entryX=0.454;entryY=1.012;entryDx=0;entryDy=0;entryPerimeter=0;fontFamily=Helvetica;fontSize=18;endSize=23;startSize=23;endArrow=diamondThin;endFill=1;" parent="1" source="71" target="23" edge="1"><mxGeometry relative="1" as="geometry"><Array as="points"><mxPoint x="970" y="810"/><mxPoint x="881" y="810"/></Array></mxGeometry></mxCell><mxCell id="71" value="&lt;span style=&quot;font-size: 19px;&quot;&gt;Review&lt;/span&gt;" style="rounded=0;whiteSpace=wrap;html=1;" parent="1" vertex="1"><mxGeometry x="930" y="790" width="160" height="40" as="geometry"/></mxCell><mxCell id="118" style="edgeStyle=orthogonalEdgeStyle;rounded=0;orthogonalLoop=1;jettySize=auto;html=1;exitX=1;exitY=0.25;exitDx=0;exitDy=0;entryX=1;entryY=0.25;entryDx=0;entryDy=0;endArrow=diamondThin;endFill=1;endSize=23;startSize=23;" parent="1" source="74" target="68" edge="1"><mxGeometry relative="1" as="geometry"><Array as="points"><mxPoint x="1000" y="890"/><mxPoint x="1040" y="890"/><mxPoint x="1040" y="930"/><mxPoint x="1278" y="930"/></Array></mxGeometry></mxCell><mxCell id="74" value="id: int&lt;br&gt;&lt;div&gt;&lt;span style=&quot;background-color: initial;&quot;&gt;text: str&lt;/span&gt;&lt;/div&gt;&lt;div&gt;stars: int&lt;/div&gt;&lt;div style=&quot;font-size: 18px;&quot;&gt;author: User&lt;br&gt;&lt;/div&gt;&lt;div style=&quot;font-size: 18px;&quot;&gt;shop: CoffeeShop&lt;/div&gt;" style="rounded=0;whiteSpace=wrap;html=1;fontSize=18;spacingLeft=6;align=left;verticalAlign=top;" parent="1" vertex="1"><mxGeometry x="930" y="830" width="160" height="120" as="geometry"/></mxCell><mxCell id="125" style="edgeStyle=orthogonalEdgeStyle;rounded=0;orthogonalLoop=1;jettySize=auto;html=1;exitX=0.75;exitY=1;exitDx=0;exitDy=0;entryX=1.016;entryY=0.094;entryDx=0;entryDy=0;entryPerimeter=0;endSize=23;startSize=23;endArrow=diamondThin;endFill=1;" parent="1" source="75" target="68" edge="1"><mxGeometry relative="1" as="geometry"/></mxCell><mxCell id="75" value="&lt;span style=&quot;font-size: 18px;&quot;&gt;id: int&lt;br&gt;&lt;/span&gt;text: str&lt;span style=&quot;font-size: 18px;&quot;&gt;&lt;br style=&quot;font-size: 18px;&quot;&gt;author: User&lt;br style=&quot;font-size: 18px;&quot;&gt;shop: CoffeeShop&lt;br style=&quot;font-size: 18px;&quot;&gt;&lt;/span&gt;&lt;span style=&quot;font-size: 18px;&quot;&gt;&lt;br style=&quot;font-size: 18px;&quot;&gt;&lt;/span&gt;" style="rounded=0;whiteSpace=wrap;html=1;fontSize=18;align=left;verticalAlign=top;spacingLeft=6;" parent="1" vertex="1"><mxGeometry x="730" y="870" width="160" height="100" as="geometry"/></mxCell><mxCell id="76" value="&lt;span style=&quot;font-size: 18px;&quot;&gt;id: int&lt;br style=&quot;font-size: 18px;&quot;&gt;&lt;/span&gt;&lt;div style=&quot;font-size: 18px;&quot;&gt;&lt;div style=&quot;font-size: 18px;&quot;&gt;mon_open: time&lt;/div&gt;&lt;div style=&quot;font-size: 18px;&quot;&gt;mon_close: time&lt;/div&gt;&lt;div style=&quot;font-size: 18px;&quot;&gt;tue_open:&amp;nbsp;&lt;span style=&quot;background-color: initial; font-size: 18px;&quot;&gt;time&lt;/span&gt;&lt;/div&gt;&lt;div style=&quot;font-size: 18px;&quot;&gt;tue_close:&amp;nbsp;&lt;span style=&quot;background-color: initial; font-size: 18px;&quot;&gt;time&lt;/span&gt;&lt;/div&gt;&lt;div style=&quot;font-size: 18px;&quot;&gt;wed_open:&amp;nbsp;&lt;span style=&quot;background-color: initial; font-size: 18px;&quot;&gt;time&lt;/span&gt;&lt;/div&gt;&lt;div style=&quot;font-size: 18px;&quot;&gt;wed_close:&amp;nbsp;&lt;span style=&quot;background-color: initial; font-size: 18px;&quot;&gt;time&lt;/span&gt;&lt;/div&gt;&lt;div style=&quot;font-size: 18px;&quot;&gt;thu_open:&amp;nbsp;&lt;span style=&quot;background-color: initial; font-size: 18px;&quot;&gt;time&lt;/span&gt;&lt;/div&gt;&lt;div style=&quot;font-size: 18px;&quot;&gt;thu_close:&amp;nbsp;&lt;span style=&quot;background-color: initial; font-size: 18px;&quot;&gt;time&lt;/span&gt;&lt;/div&gt;&lt;div style=&quot;font-size: 18px;&quot;&gt;fri_open:&amp;nbsp;&lt;span style=&quot;background-color: initial; font-size: 18px;&quot;&gt;time&lt;/span&gt;&lt;/div&gt;&lt;div style=&quot;font-size: 18px;&quot;&gt;fri_close:&amp;nbsp;&lt;span style=&quot;background-color: initial; font-size: 18px;&quot;&gt;time&lt;/span&gt;&lt;/div&gt;&lt;div style=&quot;font-size: 18px;&quot;&gt;sat_open:&amp;nbsp;&lt;span style=&quot;background-color: initial; font-size: 18px;&quot;&gt;time&lt;/span&gt;&lt;/div&gt;&lt;div style=&quot;font-size: 18px;&quot;&gt;sat_close:&amp;nbsp;&lt;span style=&quot;background-color: initial; font-size: 18px;&quot;&gt;time&lt;/span&gt;&lt;/div&gt;&lt;div style=&quot;font-size: 18px;&quot;&gt;sun_open:&amp;nbsp;&lt;span style=&quot;background-color: initial; font-size: 18px;&quot;&gt;time&lt;/span&gt;&lt;/div&gt;&lt;div style=&quot;font-size: 18px;&quot;&gt;sun_close:&amp;nbsp;&lt;span style=&quot;background-color: initial; font-size: 18px;&quot;&gt;time&lt;/span&gt;&lt;/div&gt;&lt;div style=&quot;font-size: 18px;&quot;&gt;&lt;br style=&quot;font-size: 18px;&quot;&gt;&lt;/div&gt;&lt;/div&gt;" style="rounded=0;whiteSpace=wrap;html=1;fontSize=18;align=left;verticalAlign=top;spacingLeft=6;" parent="1" vertex="1"><mxGeometry x="510" y="450" width="170" height="340" as="geometry"/></mxCell><mxCell id="77" value="id: int&lt;br style=&quot;font-size: 18px;&quot;&gt;postal_code: int&lt;br style=&quot;font-size: 18px;&quot;&gt;&lt;div style=&quot;font-size: 18px;&quot;&gt;&lt;span style=&quot;background-color: initial; font-size: 18px;&quot;&gt;street: str&lt;br style=&quot;font-size: 18px;&quot;&gt;city: str&lt;/span&gt;&lt;/div&gt;" style="rounded=0;whiteSpace=wrap;html=1;fontSize=18;spacingLeft=6;align=left;verticalAlign=top;" parent="1" vertex="1"><mxGeometry x="1110" y="770" width="150" height="100" as="geometry"/></mxCell><mxCell id="78" value="&lt;span style=&quot;font-size: 18px;&quot;&gt;id: int&lt;br style=&quot;font-size: 18px;&quot;&gt;instagram: url&lt;br style=&quot;font-size: 18px;&quot;&gt;facebook: url&lt;br style=&quot;font-size: 18px;&quot;&gt;&lt;/span&gt;&lt;span style=&quot;font-size: 18px;&quot;&gt;twitter: url&lt;/span&gt;&lt;span style=&quot;font-size: 18px;&quot;&gt;&lt;br style=&quot;font-size: 18px;&quot;&gt;&lt;br style=&quot;font-size: 18px;&quot;&gt;&lt;/span&gt;" style="rounded=0;whiteSpace=wrap;html=1;fontSize=18;align=left;verticalAlign=top;spacingLeft=6;" parent="1" vertex="1"><mxGeometry x="1100" y="340" width="130" height="100" as="geometry"/></mxCell><mxCell id="80" value="&lt;font style=&quot;font-size: 18px;&quot;&gt;id: int&lt;br style=&quot;font-size: 18px;&quot;&gt;&lt;/font&gt;&lt;span style=&quot;background-color: rgb(255, 255, 255); color: rgb(8, 8, 8); font-size: 18px;&quot;&gt;image: img&lt;br&gt;coffee_shop: CoffeeShop&lt;br style=&quot;font-size: 18px;&quot;&gt;&lt;/span&gt;" style="rounded=0;whiteSpace=wrap;html=1;fontSize=18;align=left;verticalAlign=top;spacingLeft=6;direction=south;" parent="1" vertex="1"><mxGeometry x="600" y="290" width="220" height="80" as="geometry"/></mxCell><mxCell id="81" value="&lt;p style=&quot;line-height: 100%; font-size: 19px;&quot;&gt;GalleryImage&lt;/p&gt;" style="rounded=0;whiteSpace=wrap;html=1;align=center;" parent="1" vertex="1"><mxGeometry x="600" y="240" width="220" height="50" as="geometry"/></mxCell><mxCell id="110" style="edgeStyle=orthogonalEdgeStyle;rounded=0;orthogonalLoop=1;jettySize=auto;html=1;exitX=0;exitY=0.5;exitDx=0;exitDy=0;fontFamily=Helvetica;fontSize=18;endSize=23;startSize=23;endArrow=diamondThin;endFill=1;" parent="1" target="80" edge="1"><mxGeometry relative="1" as="geometry"><mxPoint x="789.9999999999999" y="599.42" as="sourcePoint"/><mxPoint x="760" y="420" as="targetPoint"/><Array as="points"><mxPoint x="790" y="604"/><mxPoint x="747" y="604"/></Array></mxGeometry></mxCell><mxCell id="126" value="&lt;p style=&quot;line-height: 100%;&quot;&gt;&lt;span style=&quot;font-size: 19px;&quot;&gt;City&lt;/span&gt;&lt;/p&gt;" style="rounded=0;whiteSpace=wrap;html=1;" parent="1" vertex="1"><mxGeometry x="540" y="850" width="160" height="40" as="geometry"/></mxCell><mxCell id="127" value="&lt;span style=&quot;font-size: 18px;&quot;&gt;id: int&lt;br&gt;&lt;/span&gt;city_name: str&lt;span style=&quot;font-size: 18px;&quot;&gt;&lt;br style=&quot;font-size: 18px;&quot;&gt;map_svg: str&lt;br style=&quot;font-size: 18px;&quot;&gt;&lt;/span&gt;&lt;span style=&quot;font-size: 18px;&quot;&gt;&lt;br style=&quot;font-size: 18px;&quot;&gt;&lt;/span&gt;" style="rounded=0;whiteSpace=wrap;html=1;fontSize=18;align=left;verticalAlign=top;spacingLeft=6;" parent="1" vertex="1"><mxGeometry x="540" y="890" width="160" height="80" as="geometry"/></mxCell></root></mxGraphModel></diagram></mxfile>